<?xml version="1.0" encoding="utf-8"?><svg version="1.1" id="Layer_1" xmlns="http://www.w3.org/2000/svg" xmlns:xlink="http://www.w3.org/1999/xlink" x="0px" y="0px" viewBox="0 0 79.37 122.88" style="enable-background:new 0 0 79.37 122.88" xml:space="preserve"><g><path d="M50.2,1.25c6.71,1.85,12.72,5.44,17.51,10.23c7.19,7.19,11.65,17.11,11.65,28.03V83.2c0,10.92-4.46,20.84-11.65,28.03 c-7.19,7.19-17.11,11.65-28.03,11.65c-10.92,0-20.84-4.46-28.03-11.65C4.46,104.04,0,94.11,0,83.2V39.51 c0-10.92,4.46-20.84,11.65-28.03C17.24,5.9,24.48,1.96,32.55,0.48C37.42-0.42,45.7,0.01,50.2,1.25L50.2,1.25L50.2,1.25z M39.23,30.82c4.15,0,7.55,3.4,7.55,7.55v7.78c0,4.15-3.4,7.55-7.55,7.55c-4.15,0-7.55-3.4-7.55-7.55v-7.78 C31.68,34.22,35.07,30.82,39.23,30.82L39.23,30.82z M61.08,18.11c-5.49-5.49-13.07-8.91-21.4-8.91c-8.33,0-15.9,3.41-21.4,8.91 c-5.49,5.49-8.91,13.07-8.91,21.4V83.2c0,8.33,3.41,15.9,8.91,21.4c5.49,5.49,13.07,8.91,21.4,8.91c8.33,0,15.9-3.41,21.4-8.91 c5.49-5.49,8.91-13.07,8.91-21.4V39.51C69.99,31.18,66.58,23.61,61.08,18.11L61.08,18.11L61.08,18.11z"/></g></svg>