<svg id="Layer_2" data-name="Layer 2" xmlns="http://www.w3.org/2000/svg" viewBox="0 0 500 300"><defs><style>.cls-1{fill:none;stroke:#000;stroke-miterlimit:10;}.cls-2{fill:#fff;}.cls-3{fill:#ffb740;}</style></defs><path class="cls-1" d="M435.8,224.65a35.73,35.73,0,1,1-35.72-35.72A35.72,35.72,0,0,1,435.8,224.65Z"/><path class="cls-1" d="M435.8,224.65a35.73,35.73,0,1,1-35.72-35.72A35.72,35.72,0,0,1,435.8,224.65Z"/><path class="cls-2" d="M398.71,9.8H22.53V290.2H93.61a71.11,71.11,0,0,0,70.14-59.44,71.09,71.09,0,0,0,140.36-.58,71.1,71.1,0,0,0,70.24,60H477.47V88.58A78.77,78.77,0,0,0,398.71,9.8Zm1.37,250.59a35.73,35.73,0,1,1,35.72-35.74A35.74,35.74,0,0,1,400.08,260.39Z"/><path class="cls-3" d="M435.8,224.65a35.73,35.73,0,1,1-35.72-35.72A35.72,35.72,0,0,1,435.8,224.65Z"/></svg>